<svg width="520" height="520" viewBox="0 0 520 520" fill="none" xmlns="http://www.w3.org/2000/svg">
  <rect width="520" height="520" rx="96" fill="white"/>
  <circle cx="260" cy="220" r="150" fill="none" stroke="#000000" stroke-width="18"/>
  <circle cx="260" cy="220" r="110" fill="none" stroke="#000000" stroke-width="10"/>
  <rect x="236" y="196" width="48" height="48" rx="8" fill="#000000"/>
  <path d="M145 220H185M335 220H375M260 105V145M260 295V335M183 143L208 168M312 272L337 297M337 143L312 168M208 272L183 297" stroke="#000000" stroke-width="14" stroke-linecap="round"/>
  <path d="M201 220C221 186 299 186 319 220C299 254 221 254 201 220Z" stroke="#33ABC6" stroke-width="10" fill="none"/>
  <circle cx="230" cy="220" r="8" fill="#33ABC6"/>
  <circle cx="290" cy="220" r="8" fill="#33ABC6"/>
  <path d="M84 414L185 414L102 487H0L84 414Z" fill="#33ABC6"/>
  <text x="196" y="486" fill="#33ABC6" font-family="Arial, Helvetica, sans-serif" font-size="112" font-weight="700">ICK</text>
  <text x="384" y="486" fill="#000000" font-family="Arial, Helvetica, sans-serif" font-size="112" font-weight="700">AI</text>
</svg>
